<svg width="100" height="100" viewBox="0 0 100 100" fill="none" xmlns="http://www.w3.org/2000/svg">
<path d="M91.6666 20.8334C91.6666 13.9298 73.0118 8.33337 50 8.33337C26.9881 8.33337 8.33331 13.9298 8.33331 20.8334V26.4102C8.62227 26.6584 8.99114 26.9357 9.46193 27.2392C11.4003 28.4891 14.4122 29.7328 18.4132 30.824C26.3703 32.9941 37.5391 34.375 50 34.375C62.4608 34.375 73.6296 32.9941 81.5868 30.824C85.5878 29.7328 88.5997 28.4891 90.538 27.2392C91.0088 26.9357 91.3777 26.6584 91.6666 26.4102V20.8334Z" fill="white"/>
<path d="M91.6666 33.7695C89.2956 34.9556 86.4278 35.982 83.2313 36.8538C74.6 39.2077 62.8522 40.625 50 40.625C37.1478 40.625 25.3999 39.2077 16.7687 36.8538C13.5722 35.982 10.7044 34.9556 8.33331 33.7695V47.2435C8.62227 47.4917 8.99114 47.769 9.46193 48.0726C11.4003 49.3224 14.4122 50.5661 18.4132 51.6573C26.3703 53.8275 37.5391 55.2084 50 55.2084C62.4608 55.2084 73.6296 53.8275 81.5868 51.6573C85.5878 50.5661 88.5997 49.3224 90.538 48.0726C91.0088 47.769 91.3777 47.4917 91.6666 47.2435V33.7695Z" fill="white"/>
<path d="M8.33331 68.0769V54.6028C10.7044 55.7889 13.5722 56.8153 16.7687 57.6871C25.3999 60.0411 37.1478 61.4584 50 61.4584C62.8522 61.4584 74.6 60.0411 83.2313 57.6871C86.4278 56.8153 89.2956 55.7889 91.6666 54.6028V68.0769C91.3777 68.325 91.0088 68.6023 90.538 68.9059C88.5997 70.1558 85.5878 71.3995 81.5868 72.4907C73.6296 74.6608 62.4608 76.0417 50 76.0417C37.5391 76.0417 26.3703 74.6608 18.4132 72.4907C14.4122 71.3995 11.4003 70.1558 9.46193 68.9059C8.99114 68.6023 8.62227 68.325 8.33331 68.0769Z" fill="white"/>
<path d="M91.6666 75.4361C89.2956 76.6222 86.4278 77.6486 83.2313 78.5204C74.6 80.8744 62.8522 82.2917 50 82.2917C37.1478 82.2917 25.3999 80.8744 16.7687 78.5204C13.5722 77.6486 10.7044 76.6222 8.33331 75.4361V79.1667C8.33331 86.0703 26.9881 91.6667 50 91.6667C73.0118 91.6667 91.6666 86.0703 91.6666 79.1667V75.4361Z" fill="white"/>
</svg>
