<svg width="68" height="88" viewBox="0 0 68 88" fill="none" xmlns="http://www.w3.org/2000/svg">
<path fill-rule="evenodd" clip-rule="evenodd" d="M17.3333 0C15.0321 0 13.1666 1.86548 13.1666 4.16667V12.5H9.3086C4.53577 12.5 0.666626 16.231 0.666626 20.8333V79.1667C0.666626 83.769 4.53577 87.5 9.3086 87.5H58.6913C63.4641 87.5 67.3333 83.769 67.3333 79.1667V20.8333C67.3333 16.231 63.4641 12.5 58.6913 12.5H54.8333V4.16667C54.8333 1.86548 52.9678 0 50.6666 0C48.3654 0 46.5 1.86548 46.5 4.16667V12.5H38.1666V4.16667C38.1666 1.86548 36.3011 0 34 0C31.6988 0 29.8333 1.86548 29.8333 4.16667V12.5H21.5V4.16667C21.5 1.86548 19.6345 0 17.3333 0ZM50.6666 29.1667V33.3333H17.3333V29.1667H50.6666ZM42.3333 41.6667V45.8333H17.3333V41.6667H42.3333ZM17.3333 54.1667H50.6666V58.3333H17.3333V54.1667ZM42.3333 66.6667H17.3333V70.8333H42.3333V66.6667Z" fill="white"/>
</svg>
